<svg width="64" height="64" viewBox="0 0 64 64" fill="none" xmlns="http://www.w3.org/2000/svg">
<path opacity="0.2" d="M24 60.0033L28 40.0033L12 34.0033L40 4.0033L36 24.0033L52 30.0033L24 60.0033Z" fill="#6610F2"/>
<path d="M53.9474 29.5459C53.8717 29.2253 53.7179 28.9284 53.4999 28.6816C53.2818 28.4347 53.0062 28.2456 52.6974 28.1309L38.2949 22.7284L41.9599 4.39588C42.0429 3.96993 41.9851 3.52855 41.7952 3.13833C41.6053 2.74812 41.2937 2.43025 40.9073 2.23268C40.521 2.03512 40.0808 1.96859 39.6533 2.04312C39.2258 2.11766 38.8341 2.32922 38.5374 2.64588L10.5374 32.6459C10.31 32.8855 10.1455 33.1777 10.0586 33.4965C9.97164 33.8152 9.96503 34.1505 10.0393 34.4724C10.1136 34.7943 10.2665 35.0927 10.4843 35.3411C10.702 35.5896 10.978 35.7801 11.2874 35.8959L25.6949 41.2984L22.0399 59.6109C21.9569 60.0368 22.0147 60.4782 22.2046 60.8684C22.3945 61.2586 22.7061 61.5765 23.0925 61.7741C23.4788 61.9716 23.919 62.0382 24.3465 61.9636C24.774 61.8891 25.1657 61.6775 25.4624 61.3609L53.4624 31.3609C53.6857 31.1212 53.8467 30.8303 53.9313 30.5139C54.0158 30.1974 54.0214 29.865 53.9474 29.5459ZM27.3424 53.5034L29.9599 40.4084C30.0536 39.944 29.9793 39.4614 29.7504 39.0466C29.5215 38.6318 29.1528 38.3117 28.7099 38.1434L15.4999 33.1809L36.6549 10.5159L34.0399 23.6109C33.9462 24.0753 34.0205 24.5579 34.2494 24.9727C34.4783 25.3875 34.847 25.7076 35.2899 25.8759L48.4899 30.8259L27.3424 53.5034Z" fill="#6610F2"/>
</svg>
