<svg width="48" height="48" viewBox="0 0 48 48" fill="none" xmlns="http://www.w3.org/2000/svg">
<rect y="0.0032959" width="48" height="48" rx="6" fill="#520DC2"/>
<path d="M24.9286 36.1828C25.7429 36.1828 26.4479 36.0916 27.0434 35.9093C27.2258 35.727 27.3534 35.5143 27.4263 35.2712C27.4992 35.0403 27.5357 34.8215 27.5357 34.6149C27.5357 34.3961 27.5175 34.232 27.481 34.1226C27.4445 34.0254 27.3838 33.9342 27.2987 33.8491C26.7882 33.7641 26.1866 33.7033 25.4938 33.6668C24.8131 33.6425 24.406 33.6243 24.2723 33.6121C22.5828 33.5392 21.2094 33.4177 20.152 33.2475C19.0946 33.0652 18.1891 32.6762 17.4355 32.0807C16.6819 31.473 16.3052 30.5614 16.3052 29.346C16.3052 28.6897 16.5179 28.0759 16.9433 27.5046C17.3687 26.9212 17.9217 26.4107 18.6023 25.9732C17.2167 25.4019 16.1046 24.5451 15.266 23.4026C14.4395 22.2479 14.0262 20.759 14.0262 18.9359C14.0262 17.1249 14.4881 15.6725 15.4118 14.5786C16.3477 13.4725 17.4963 12.6947 18.8576 12.245C20.2188 11.7952 21.6044 11.5704 23.0143 11.5704C23.9016 11.5704 24.7706 11.6555 25.6214 11.8256C26.4722 11.9958 27.2622 12.2389 27.9915 12.5549L27.2075 7.92412C27.9489 7.47441 28.8727 7.24956 29.9787 7.24956C30.7809 7.24956 31.5284 7.38325 32.2212 7.65065C32.9139 7.91804 33.4427 8.3009 33.8073 8.79922C33.8316 8.92077 33.8438 9.11523 33.8438 9.38263C33.8438 10.3793 33.6614 11.4914 33.2968 12.719C32.9443 13.9344 32.3305 14.9128 31.4554 15.6542C31.893 16.5293 32.1118 17.4713 32.1118 18.4801C32.1118 19.9629 31.8261 21.3303 31.2549 22.5821C30.6958 23.834 29.7599 24.855 28.4473 25.645C27.1346 26.4229 25.4269 26.8118 23.3242 26.8118C22.7165 26.8118 22.0845 26.7754 21.4282 26.7024C21.3917 27.3101 21.5376 27.9179 21.8657 28.5256C23.5066 28.2096 24.8314 28.0455 25.8402 28.0333L27.0799 28.0151C28.7572 28.0151 30.0273 28.1184 30.8903 28.325C31.8383 28.556 32.5432 29.0786 33.0051 29.8929C33.4791 30.7073 33.7161 31.6978 33.7161 32.8646C33.7161 34.6878 33.157 36.2192 32.0388 37.4589C30.9328 38.7108 29.4925 39.6406 27.718 40.2483C25.9556 40.8561 24.0839 41.1599 22.1027 41.1599C20.2675 41.1599 18.6327 40.85 17.1985 40.2301C15.7643 39.6102 14.8588 38.4738 14.482 36.8208C14.8831 35.4231 15.6488 34.3657 16.7792 33.6486C18.2985 34.5602 19.7509 35.2104 21.1365 35.5993C22.5342 35.9883 23.7983 36.1828 24.9286 36.1828ZM23.8165 22.3087C24.6916 22.3087 25.2021 22.254 25.3479 22.1446C25.6761 21.4883 25.8402 20.8137 25.8402 20.1209C25.8402 19.4038 25.6761 18.7292 25.3479 18.0972C25.1899 17.9635 24.8375 17.8602 24.2905 17.7873C23.7557 17.7144 23.1723 17.6779 22.5403 17.6779C21.7503 17.6779 21.2216 17.7265 20.9542 17.8238C20.5774 18.4922 20.389 19.1668 20.389 19.8474C20.389 20.5402 20.5652 21.1966 20.9177 21.8164C21.1851 21.9866 21.5862 22.1142 22.121 22.1993C22.6679 22.2722 23.2331 22.3087 23.8165 22.3087Z" fill="white"/>
</svg>
