<svg width="155" height="16" viewBox="0 0 155 16" fill="none" xmlns="http://www.w3.org/2000/svg">
<g clip-path="url(#clip0_385_149)">
<path d="M8.33337 16.0033C12.7517 16.0033 16.3334 12.4216 16.3334 8.0033C16.3334 3.58502 12.7517 0.0032959 8.33337 0.0032959C3.9151 0.0032959 0.333374 3.58502 0.333374 8.0033C0.333374 12.4216 3.9151 16.0033 8.33337 16.0033Z" fill="#3D0A91"/>
</g>
<g clip-path="url(#clip1_385_149)">
<path d="M26.3334 16.0033C30.7517 16.0033 34.3334 12.4216 34.3334 8.0033C34.3334 3.58502 30.7517 0.0032959 26.3334 0.0032959C21.9151 0.0032959 18.3334 3.58502 18.3334 8.0033C18.3334 12.4216 21.9151 16.0033 26.3334 16.0033Z" fill="#3D0A91"/>
</g>
<g clip-path="url(#clip2_385_149)">
<path d="M44.3334 16.0033C48.7517 16.0033 52.3334 12.4216 52.3334 8.0033C52.3334 3.58502 48.7517 0.0032959 44.3334 0.0032959C39.9151 0.0032959 36.3334 3.58502 36.3334 8.0033C36.3334 12.4216 39.9151 16.0033 44.3334 16.0033Z" fill="#3D0A91"/>
</g>
<g clip-path="url(#clip3_385_149)">
<path d="M62.3334 16.0033C66.7517 16.0033 70.3334 12.4216 70.3334 8.0033C70.3334 3.58502 66.7517 0.0032959 62.3334 0.0032959C57.9151 0.0032959 54.3334 3.58502 54.3334 8.0033C54.3334 12.4216 57.9151 16.0033 62.3334 16.0033Z" fill="#3D0A91"/>
</g>
<g clip-path="url(#clip4_385_149)">
<path fill-rule="evenodd" clip-rule="evenodd" d="M80.3334 15.0033C82.1899 15.0033 83.9704 14.2658 85.2831 12.953C86.5959 11.6403 87.3334 9.85981 87.3334 8.0033C87.3334 6.14678 86.5959 4.3663 85.2831 3.05355C83.9704 1.74079 82.1899 1.0033 80.3334 1.0033C78.4769 1.0033 76.6964 1.74079 75.3836 3.05355C74.0709 4.3663 73.3334 6.14678 73.3334 8.0033C73.3334 9.85981 74.0709 11.6403 75.3836 12.953C76.6964 14.2658 78.4769 15.0033 80.3334 15.0033ZM80.3334 16.0033C82.4551 16.0033 84.4899 15.1604 85.9902 13.6602C87.4905 12.1599 88.3334 10.125 88.3334 8.0033C88.3334 5.88156 87.4905 3.84673 85.9902 2.34644C84.4899 0.846151 82.4551 0.0032959 80.3334 0.0032959C78.2116 0.0032959 76.1768 0.846151 74.6765 2.34644C73.1762 3.84673 72.3334 5.88156 72.3334 8.0033C72.3334 10.125 73.1762 12.1599 74.6765 13.6602C76.1768 15.1604 78.2116 16.0033 80.3334 16.0033Z" fill="#3D0A91"/>
</g>
<path d="M96.9087 10.9692V9.51608L100.552 3.77602H101.805V5.78739H101.063L98.7666 9.42233V9.49051H103.944V10.9692H96.9087ZM101.098 12.5033V10.526L101.132 9.88256V3.77602H102.862V12.5033H101.098ZM110.843 3.36693L108.031 13.8158H106.467L109.279 3.36693H110.843ZM117.666 12.6226C117.063 12.6226 116.527 12.5118 116.055 12.2902C115.586 12.0686 115.214 11.7632 114.938 11.374C114.663 10.9848 114.519 10.5388 114.508 10.036H116.298C116.318 10.374 116.46 10.6482 116.724 10.8584C116.988 11.0686 117.302 11.1738 117.666 11.1738C117.956 11.1738 118.211 11.1098 118.433 10.982C118.657 10.8513 118.832 10.6709 118.957 10.4408C119.085 10.2078 119.149 9.9408 119.149 9.63966C119.149 9.33284 119.083 9.06295 118.953 8.83C118.825 8.59705 118.647 8.41523 118.42 8.28455C118.193 8.15386 117.933 8.0871 117.64 8.08426C117.385 8.08426 117.136 8.13682 116.894 8.24193C116.656 8.34705 116.47 8.49051 116.336 8.67233L114.696 8.3783L115.109 3.77602H120.444V5.28455H116.63L116.404 7.47063H116.456C116.609 7.25472 116.84 7.07574 117.15 6.93369C117.46 6.79165 117.806 6.72063 118.19 6.72063C118.715 6.72063 119.184 6.8442 119.596 7.09136C120.008 7.33852 120.333 7.67801 120.572 8.10983C120.811 8.53881 120.929 9.03313 120.926 9.59278C120.929 10.1809 120.792 10.7036 120.517 11.161C120.244 11.6155 119.862 11.9735 119.37 12.2348C118.882 12.4934 118.313 12.6226 117.666 12.6226ZM130.453 7.82432L128.791 7.92659C128.763 7.78455 128.702 7.6567 128.608 7.54307C128.514 7.42659 128.391 7.33426 128.237 7.26608C128.087 7.19506 127.906 7.15955 127.696 7.15955C127.415 7.15955 127.177 7.2192 126.984 7.33852C126.791 7.455 126.695 7.61125 126.695 7.80727C126.695 7.96352 126.757 8.09563 126.882 8.20358C127.007 8.31153 127.222 8.39818 127.525 8.46352L128.71 8.70216C129.347 8.83284 129.821 9.04307 130.133 9.33284C130.446 9.62261 130.602 10.0033 130.602 10.4749C130.602 10.9039 130.476 11.2803 130.223 11.6041C129.973 11.928 129.629 12.1809 129.192 12.3627C128.757 12.5416 128.256 12.6311 127.687 12.6311C126.821 12.6311 126.131 12.4507 125.616 12.0899C125.105 11.7263 124.805 11.232 124.717 10.607L126.503 10.5132C126.557 10.7774 126.687 10.9791 126.895 11.1184C127.102 11.2547 127.368 11.3229 127.692 11.3229C128.01 11.3229 128.266 11.2618 128.459 11.1397C128.655 11.0147 128.754 10.8541 128.757 10.6581C128.754 10.4934 128.685 10.3584 128.548 10.2533C128.412 10.1453 128.202 10.063 127.918 10.0061L126.784 9.78028C126.145 9.65244 125.669 9.43085 125.356 9.11551C125.047 8.80017 124.892 8.39818 124.892 7.90955C124.892 7.48909 125.006 7.12688 125.233 6.8229C125.463 6.51892 125.785 6.28455 126.2 6.11977C126.618 5.955 127.106 5.87261 127.666 5.87261C128.493 5.87261 129.143 6.04733 129.618 6.39676C130.095 6.74619 130.374 7.22205 130.453 7.82432ZM135.227 5.95784V7.32148H131.285V5.95784H135.227ZM132.18 4.38966H133.995V10.4919C133.995 10.6595 134.021 10.7902 134.072 10.884C134.123 10.9749 134.194 11.0388 134.285 11.0757C134.379 11.1127 134.487 11.1311 134.609 11.1311C134.694 11.1311 134.779 11.124 134.865 11.1098C134.95 11.0928 135.015 11.08 135.061 11.0715L135.346 12.4223C135.255 12.4507 135.127 12.4834 134.963 12.5203C134.798 12.5601 134.598 12.5843 134.362 12.5928C133.924 12.6098 133.541 12.5516 133.211 12.4181C132.885 12.2845 132.63 12.0772 132.448 11.7959C132.267 11.5147 132.177 11.1595 132.18 10.7306V4.38966ZM138.276 12.6269C137.858 12.6269 137.486 12.5544 137.159 12.4095C136.833 12.2618 136.574 12.0445 136.384 11.7576C136.196 11.4678 136.103 11.107 136.103 10.6752C136.103 10.3115 136.169 10.0061 136.303 9.75898C136.436 9.51182 136.618 9.31296 136.848 9.16239C137.078 9.01182 137.34 8.89818 137.632 8.82148C137.928 8.74477 138.237 8.6908 138.561 8.65955C138.942 8.61977 139.249 8.58284 139.482 8.54875C139.715 8.51182 139.884 8.45784 139.989 8.38682C140.094 8.3158 140.147 8.21068 140.147 8.07148V8.04591C140.147 7.77602 140.061 7.56722 139.891 7.41949C139.723 7.27176 139.485 7.1979 139.175 7.1979C138.848 7.1979 138.588 7.27034 138.395 7.41523C138.202 7.55727 138.074 7.73625 138.012 7.95216L136.333 7.8158C136.418 7.41807 136.586 7.07432 136.836 6.78455C137.086 6.49193 137.408 6.2675 137.803 6.11125C138.201 5.95216 138.661 5.87261 139.184 5.87261C139.547 5.87261 139.895 5.91523 140.228 6.00045C140.563 6.08568 140.86 6.21778 141.118 6.39676C141.38 6.57574 141.586 6.80585 141.736 7.0871C141.887 7.36551 141.962 7.69932 141.962 8.08852V12.5033H140.24V11.5956H140.189C140.084 11.8002 139.943 11.9806 139.767 12.1368C139.591 12.2902 139.38 12.411 139.132 12.499C138.885 12.5843 138.6 12.6269 138.276 12.6269ZM138.796 11.374C139.063 11.374 139.299 11.3215 139.503 11.2164C139.708 11.1084 139.868 10.9635 139.985 10.7817C140.101 10.5999 140.159 10.3939 140.159 10.1638V9.46921C140.103 9.50614 140.024 9.54023 139.925 9.57148C139.828 9.59989 139.719 9.62688 139.597 9.65244C139.475 9.67517 139.353 9.69648 139.23 9.71636C139.108 9.73341 138.997 9.74903 138.898 9.76324C138.685 9.79449 138.499 9.8442 138.34 9.91239C138.181 9.98057 138.057 10.0729 137.969 10.1894C137.881 10.303 137.837 10.4451 137.837 10.6155C137.837 10.8627 137.926 11.0516 138.105 11.1823C138.287 11.3101 138.517 11.374 138.796 11.374ZM143.37 12.5033V5.95784H145.13V7.09989H145.198C145.318 6.69364 145.518 6.38682 145.799 6.17943C146.081 5.9692 146.404 5.86409 146.771 5.86409C146.862 5.86409 146.96 5.86977 147.065 5.88114C147.17 5.8925 147.262 5.90813 147.342 5.92801V7.53881C147.257 7.51324 147.139 7.49051 146.988 7.47063C146.838 7.45074 146.7 7.4408 146.575 7.4408C146.308 7.4408 146.069 7.49903 145.859 7.61551C145.652 7.72915 145.487 7.88824 145.365 8.09278C145.245 8.29733 145.186 8.53313 145.186 8.80017V12.5033H143.37ZM153.726 7.82432L152.065 7.92659C152.036 7.78455 151.975 7.6567 151.881 7.54307C151.788 7.42659 151.664 7.33426 151.511 7.26608C151.36 7.19506 151.18 7.15955 150.969 7.15955C150.688 7.15955 150.451 7.2192 150.258 7.33852C150.065 7.455 149.968 7.61125 149.968 7.80727C149.968 7.96352 150.03 8.09563 150.155 8.20358C150.28 8.31153 150.495 8.39818 150.799 8.46352L151.984 8.70216C152.62 8.83284 153.094 9.04307 153.407 9.33284C153.719 9.62261 153.876 10.0033 153.876 10.4749C153.876 10.9039 153.749 11.2803 153.496 11.6041C153.246 11.928 152.903 12.1809 152.465 12.3627C152.03 12.5416 151.529 12.6311 150.961 12.6311C150.094 12.6311 149.404 12.4507 148.89 12.0899C148.378 11.7263 148.079 11.232 147.991 10.607L149.776 10.5132C149.83 10.7774 149.961 10.9791 150.168 11.1184C150.376 11.2547 150.641 11.3229 150.965 11.3229C151.283 11.3229 151.539 11.2618 151.732 11.1397C151.928 11.0147 152.028 10.8541 152.03 10.6581C152.028 10.4934 151.958 10.3584 151.822 10.2533C151.685 10.1453 151.475 10.063 151.191 10.0061L150.057 9.78028C149.418 9.65244 148.942 9.43085 148.63 9.11551C148.32 8.80017 148.165 8.39818 148.165 7.90955C148.165 7.48909 148.279 7.12688 148.506 6.8229C148.736 6.51892 149.059 6.28455 149.474 6.11977C149.891 5.955 150.38 5.87261 150.94 5.87261C151.766 5.87261 152.417 6.04733 152.891 6.39676C153.369 6.74619 153.647 7.22205 153.726 7.82432Z" fill="#3D0A91"/>
<defs>
<clipPath id="clip0_385_149">
<rect width="16" height="16" fill="white" transform="translate(0.333374 0.0032959)"/>
</clipPath>
<clipPath id="clip1_385_149">
<rect width="16" height="16" fill="white" transform="translate(18.3334 0.0032959)"/>
</clipPath>
<clipPath id="clip2_385_149">
<rect width="16" height="16" fill="white" transform="translate(36.3334 0.0032959)"/>
</clipPath>
<clipPath id="clip3_385_149">
<rect width="16" height="16" fill="white" transform="translate(54.3334 0.0032959)"/>
</clipPath>
<clipPath id="clip4_385_149">
<rect width="16" height="16" fill="white" transform="translate(72.3334 0.0032959)"/>
</clipPath>
</defs>
</svg>
