<svg width="155" height="16" viewBox="0 0 155 16" fill="none" xmlns="http://www.w3.org/2000/svg">
<g clip-path="url(#clip0_385_110)">
<path d="M8.66663 16.0033C13.0849 16.0033 16.6666 12.4216 16.6666 8.0033C16.6666 3.58502 13.0849 0.0032959 8.66663 0.0032959C4.24835 0.0032959 0.666626 3.58502 0.666626 8.0033C0.666626 12.4216 4.24835 16.0033 8.66663 16.0033Z" fill="#3D0A91"/>
</g>
<g clip-path="url(#clip1_385_110)">
<path d="M26.6666 16.0033C31.0849 16.0033 34.6666 12.4216 34.6666 8.0033C34.6666 3.58502 31.0849 0.0032959 26.6666 0.0032959C22.2483 0.0032959 18.6666 3.58502 18.6666 8.0033C18.6666 12.4216 22.2483 16.0033 26.6666 16.0033Z" fill="#3D0A91"/>
</g>
<g clip-path="url(#clip2_385_110)">
<path d="M44.6666 16.0033C49.0849 16.0033 52.6666 12.4216 52.6666 8.0033C52.6666 3.58502 49.0849 0.0032959 44.6666 0.0032959C40.2483 0.0032959 36.6666 3.58502 36.6666 8.0033C36.6666 12.4216 40.2483 16.0033 44.6666 16.0033Z" fill="#3D0A91"/>
</g>
<g clip-path="url(#clip3_385_110)">
<path fill-rule="evenodd" clip-rule="evenodd" d="M62.6666 15.0033C64.5231 15.0033 66.3036 14.2658 67.6164 12.953C68.9291 11.6403 69.6666 9.85981 69.6666 8.0033C69.6666 6.14678 68.9291 4.3663 67.6164 3.05355C66.3036 1.74079 64.5231 1.0033 62.6666 1.0033C60.8101 1.0033 59.0296 1.74079 57.7169 3.05355C56.4041 4.3663 55.6666 6.14678 55.6666 8.0033C55.6666 9.85981 56.4041 11.6403 57.7169 12.953C59.0296 14.2658 60.8101 15.0033 62.6666 15.0033ZM62.6666 16.0033C64.7884 16.0033 66.8232 15.1604 68.3235 13.6602C69.8238 12.1599 70.6666 10.125 70.6666 8.0033C70.6666 5.88156 69.8238 3.84673 68.3235 2.34644C66.8232 0.846151 64.7884 0.0032959 62.6666 0.0032959C60.5449 0.0032959 58.5101 0.846151 57.0098 2.34644C55.5095 3.84673 54.6666 5.88156 54.6666 8.0033C54.6666 10.125 55.5095 12.1599 57.0098 13.6602C58.5101 15.1604 60.5449 16.0033 62.6666 16.0033Z" fill="#3D0A91"/>
</g>
<g clip-path="url(#clip4_385_110)">
<path fill-rule="evenodd" clip-rule="evenodd" d="M80.6666 15.0033C82.5231 15.0033 84.3036 14.2658 85.6164 12.953C86.9291 11.6403 87.6666 9.85981 87.6666 8.0033C87.6666 6.14678 86.9291 4.3663 85.6164 3.05355C84.3036 1.74079 82.5231 1.0033 80.6666 1.0033C78.8101 1.0033 77.0296 1.74079 75.7169 3.05355C74.4041 4.3663 73.6666 6.14678 73.6666 8.0033C73.6666 9.85981 74.4041 11.6403 75.7169 12.953C77.0296 14.2658 78.8101 15.0033 80.6666 15.0033ZM80.6666 16.0033C82.7884 16.0033 84.8232 15.1604 86.3235 13.6602C87.8238 12.1599 88.6666 10.125 88.6666 8.0033C88.6666 5.88156 87.8238 3.84673 86.3235 2.34644C84.8232 0.846151 82.7884 0.0032959 80.6666 0.0032959C78.5449 0.0032959 76.5101 0.846151 75.0098 2.34644C73.5095 3.84673 72.6666 5.88156 72.6666 8.0033C72.6666 10.125 73.5095 12.1599 75.0098 13.6602C76.5101 15.1604 78.5449 16.0033 80.6666 16.0033Z" fill="#3D0A91"/>
</g>
<path d="M100.6 12.6226C99.9635 12.6226 99.3967 12.5132 98.8996 12.2945C98.4053 12.0729 98.0146 11.7689 97.7277 11.3826C97.4436 10.9934 97.2973 10.5445 97.2888 10.036H99.1467C99.1581 10.249 99.2277 10.4365 99.3555 10.5985C99.4862 10.7576 99.6595 10.8811 99.8754 10.9692C100.091 11.0573 100.334 11.1013 100.604 11.1013C100.885 11.1013 101.134 11.0516 101.35 10.9522C101.566 10.8527 101.735 10.7149 101.857 10.5388C101.979 10.3627 102.04 10.1595 102.04 9.92943C102.04 9.69648 101.975 9.49051 101.844 9.31153C101.716 9.12972 101.532 8.98767 101.29 8.8854C101.052 8.78313 100.767 8.73199 100.438 8.73199H99.624V7.37688H100.438C100.716 7.37688 100.962 7.32858 101.175 7.23199C101.391 7.1354 101.559 7.00188 101.678 6.83142C101.797 6.65813 101.857 6.45642 101.857 6.22631C101.857 6.00756 101.804 5.8158 101.699 5.65102C101.597 5.48341 101.452 5.35273 101.265 5.25898C101.08 5.16523 100.864 5.11835 100.617 5.11835C100.367 5.11835 100.138 5.16381 99.9308 5.25472C99.7234 5.34278 99.5573 5.4692 99.4323 5.63398C99.3073 5.79875 99.2405 5.99193 99.232 6.21352H97.4635C97.472 5.71068 97.6155 5.2675 97.8939 4.88398C98.1723 4.50045 98.5473 4.20074 99.0189 3.98483C99.4933 3.76608 100.029 3.6567 100.625 3.6567C101.228 3.6567 101.755 3.76608 102.206 3.98483C102.658 4.20358 103.009 4.49903 103.259 4.87119C103.512 5.24051 103.637 5.65528 103.634 6.11551C103.637 6.60415 103.485 7.01182 103.178 7.33852C102.874 7.66523 102.478 7.87261 101.989 7.96068V8.02886C102.631 8.11125 103.12 8.33426 103.455 8.6979C103.793 9.05869 103.961 9.5104 103.958 10.053C103.961 10.5502 103.817 10.9919 103.527 11.3783C103.24 11.7647 102.844 12.0686 102.339 12.2902C101.833 12.5118 101.253 12.6226 100.6 12.6226ZM110.954 3.36693L108.141 13.8158H106.577L109.39 3.36693H110.954ZM117.776 12.6226C117.174 12.6226 116.637 12.5118 116.166 12.2902C115.697 12.0686 115.325 11.7632 115.049 11.374C114.774 10.9848 114.63 10.5388 114.619 10.036H116.408C116.428 10.374 116.57 10.6482 116.835 10.8584C117.099 11.0686 117.413 11.1738 117.776 11.1738C118.066 11.1738 118.322 11.1098 118.543 10.982C118.768 10.8513 118.943 10.6709 119.068 10.4408C119.195 10.2078 119.259 9.9408 119.259 9.63966C119.259 9.33284 119.194 9.06295 119.063 8.83C118.935 8.59705 118.758 8.41523 118.531 8.28455C118.303 8.15386 118.043 8.0871 117.751 8.08426C117.495 8.08426 117.247 8.13682 117.005 8.24193C116.766 8.34705 116.58 8.49051 116.447 8.67233L114.806 8.3783L115.22 3.77602H120.555V5.28455H116.741L116.515 7.47063H116.566C116.72 7.25472 116.951 7.07574 117.261 6.93369C117.57 6.79165 117.917 6.72063 118.301 6.72063C118.826 6.72063 119.295 6.8442 119.707 7.09136C120.119 7.33852 120.444 7.67801 120.683 8.10983C120.921 8.53881 121.039 9.03313 121.036 9.59278C121.039 10.1809 120.903 10.7036 120.627 11.161C120.354 11.6155 119.972 11.9735 119.481 12.2348C118.992 12.4934 118.424 12.6226 117.776 12.6226ZM130.564 7.82432L128.902 7.92659C128.873 7.78455 128.812 7.6567 128.718 7.54307C128.625 7.42659 128.501 7.33426 128.348 7.26608C128.197 7.19506 128.017 7.15955 127.807 7.15955C127.525 7.15955 127.288 7.2192 127.095 7.33852C126.902 7.455 126.805 7.61125 126.805 7.80727C126.805 7.96352 126.868 8.09563 126.993 8.20358C127.118 8.31153 127.332 8.39818 127.636 8.46352L128.821 8.70216C129.457 8.83284 129.932 9.04307 130.244 9.33284C130.557 9.62261 130.713 10.0033 130.713 10.4749C130.713 10.9039 130.586 11.2803 130.334 11.6041C130.084 11.928 129.74 12.1809 129.302 12.3627C128.868 12.5416 128.366 12.6311 127.798 12.6311C126.932 12.6311 126.241 12.4507 125.727 12.0899C125.216 11.7263 124.916 11.232 124.828 10.607L126.613 10.5132C126.667 10.7774 126.798 10.9791 127.005 11.1184C127.213 11.2547 127.478 11.3229 127.802 11.3229C128.12 11.3229 128.376 11.2618 128.569 11.1397C128.765 11.0147 128.865 10.8541 128.868 10.6581C128.865 10.4934 128.795 10.3584 128.659 10.2533C128.522 10.1453 128.312 10.063 128.028 10.0061L126.895 9.78028C126.255 9.65244 125.78 9.43085 125.467 9.11551C125.157 8.80017 125.003 8.39818 125.003 7.90955C125.003 7.48909 125.116 7.12688 125.343 6.8229C125.574 6.51892 125.896 6.28455 126.311 6.11977C126.728 5.955 127.217 5.87261 127.777 5.87261C128.603 5.87261 129.254 6.04733 129.728 6.39676C130.206 6.74619 130.484 7.22205 130.564 7.82432ZM135.337 5.95784V7.32148H131.396V5.95784H135.337ZM132.291 4.38966H134.106V10.4919C134.106 10.6595 134.131 10.7902 134.183 10.884C134.234 10.9749 134.305 11.0388 134.396 11.0757C134.489 11.1127 134.597 11.1311 134.72 11.1311C134.805 11.1311 134.89 11.124 134.975 11.1098C135.06 11.0928 135.126 11.08 135.171 11.0715L135.457 12.4223C135.366 12.4507 135.238 12.4834 135.073 12.5203C134.908 12.5601 134.708 12.5843 134.472 12.5928C134.035 12.6098 133.651 12.5516 133.322 12.4181C132.995 12.2845 132.741 12.0772 132.559 11.7959C132.377 11.5147 132.288 11.1595 132.291 10.7306V4.38966ZM138.386 12.6269C137.969 12.6269 137.597 12.5544 137.27 12.4095C136.943 12.2618 136.685 12.0445 136.494 11.7576C136.307 11.4678 136.213 11.107 136.213 10.6752C136.213 10.3115 136.28 10.0061 136.413 9.75898C136.547 9.51182 136.729 9.31296 136.959 9.16239C137.189 9.01182 137.45 8.89818 137.743 8.82148C138.038 8.74477 138.348 8.6908 138.672 8.65955C139.053 8.61977 139.359 8.58284 139.592 8.54875C139.825 8.51182 139.994 8.45784 140.1 8.38682C140.205 8.3158 140.257 8.21068 140.257 8.07148V8.04591C140.257 7.77602 140.172 7.56722 140.001 7.41949C139.834 7.27176 139.595 7.1979 139.286 7.1979C138.959 7.1979 138.699 7.27034 138.506 7.41523C138.313 7.55727 138.185 7.73625 138.122 7.95216L136.443 7.8158C136.528 7.41807 136.696 7.07432 136.946 6.78455C137.196 6.49193 137.519 6.2675 137.913 6.11125C138.311 5.95216 138.771 5.87261 139.294 5.87261C139.658 5.87261 140.006 5.91523 140.338 6.00045C140.673 6.08568 140.97 6.21778 141.229 6.39676C141.49 6.57574 141.696 6.80585 141.847 7.0871C141.997 7.36551 142.073 7.69932 142.073 8.08852V12.5033H140.351V11.5956H140.3C140.195 11.8002 140.054 11.9806 139.878 12.1368C139.702 12.2902 139.49 12.411 139.243 12.499C138.996 12.5843 138.71 12.6269 138.386 12.6269ZM138.906 11.374C139.173 11.374 139.409 11.3215 139.614 11.2164C139.818 11.1084 139.979 10.9635 140.095 10.7817C140.212 10.5999 140.27 10.3939 140.27 10.1638V9.46921C140.213 9.50614 140.135 9.54023 140.036 9.57148C139.939 9.59989 139.83 9.62688 139.707 9.65244C139.585 9.67517 139.463 9.69648 139.341 9.71636C139.219 9.73341 139.108 9.74903 139.009 9.76324C138.796 9.79449 138.609 9.8442 138.45 9.91239C138.291 9.98057 138.168 10.0729 138.08 10.1894C137.992 10.303 137.948 10.4451 137.948 10.6155C137.948 10.8627 138.037 11.0516 138.216 11.1823C138.398 11.3101 138.628 11.374 138.906 11.374ZM143.481 12.5033V5.95784H145.241V7.09989H145.309C145.428 6.69364 145.629 6.38682 145.91 6.17943C146.191 5.9692 146.515 5.86409 146.881 5.86409C146.972 5.86409 147.07 5.86977 147.176 5.88114C147.281 5.8925 147.373 5.90813 147.452 5.92801V7.53881C147.367 7.51324 147.249 7.49051 147.099 7.47063C146.948 7.45074 146.81 7.4408 146.685 7.4408C146.418 7.4408 146.18 7.49903 145.97 7.61551C145.762 7.72915 145.597 7.88824 145.475 8.09278C145.356 8.29733 145.296 8.53313 145.296 8.80017V12.5033H143.481ZM153.837 7.82432L152.175 7.92659C152.147 7.78455 152.086 7.6567 151.992 7.54307C151.898 7.42659 151.775 7.33426 151.621 7.26608C151.471 7.19506 151.29 7.15955 151.08 7.15955C150.799 7.15955 150.562 7.2192 150.368 7.33852C150.175 7.455 150.079 7.61125 150.079 7.80727C150.079 7.96352 150.141 8.09563 150.266 8.20358C150.391 8.31153 150.606 8.39818 150.91 8.46352L152.094 8.70216C152.731 8.83284 153.205 9.04307 153.517 9.33284C153.83 9.62261 153.986 10.0033 153.986 10.4749C153.986 10.9039 153.86 11.2803 153.607 11.6041C153.357 11.928 153.013 12.1809 152.576 12.3627C152.141 12.5416 151.64 12.6311 151.071 12.6311C150.205 12.6311 149.515 12.4507 149 12.0899C148.489 11.7263 148.189 11.232 148.101 10.607L149.887 10.5132C149.941 10.7774 150.071 10.9791 150.279 11.1184C150.486 11.2547 150.752 11.3229 151.076 11.3229C151.394 11.3229 151.65 11.2618 151.843 11.1397C152.039 11.0147 152.138 10.8541 152.141 10.6581C152.138 10.4934 152.069 10.3584 151.932 10.2533C151.796 10.1453 151.586 10.063 151.302 10.0061L150.168 9.78028C149.529 9.65244 149.053 9.43085 148.74 9.11551C148.431 8.80017 148.276 8.39818 148.276 7.90955C148.276 7.48909 148.39 7.12688 148.617 6.8229C148.847 6.51892 149.169 6.28455 149.584 6.11977C150.002 5.955 150.49 5.87261 151.05 5.87261C151.877 5.87261 152.527 6.04733 153.002 6.39676C153.479 6.74619 153.758 7.22205 153.837 7.82432Z" fill="#3D0A91"/>
<defs>
<clipPath id="clip0_385_110">
<rect width="16" height="16" fill="white" transform="translate(0.666626 0.0032959)"/>
</clipPath>
<clipPath id="clip1_385_110">
<rect width="16" height="16" fill="white" transform="translate(18.6666 0.0032959)"/>
</clipPath>
<clipPath id="clip2_385_110">
<rect width="16" height="16" fill="white" transform="translate(36.6666 0.0032959)"/>
</clipPath>
<clipPath id="clip3_385_110">
<rect width="16" height="16" fill="white" transform="translate(54.6666 0.0032959)"/>
</clipPath>
<clipPath id="clip4_385_110">
<rect width="16" height="16" fill="white" transform="translate(72.6666 0.0032959)"/>
</clipPath>
</defs>
</svg>
