<svg width="154" height="16" viewBox="0 0 154 16" fill="none" xmlns="http://www.w3.org/2000/svg">
<g clip-path="url(#clip0_385_240)">
<path d="M8 16.0033C12.4183 16.0033 16 12.4216 16 8.0033C16 3.58502 12.4183 0.0032959 8 0.0032959C3.58172 0.0032959 0 3.58502 0 8.0033C0 12.4216 3.58172 16.0033 8 16.0033Z" fill="#3D0A91"/>
</g>
<g clip-path="url(#clip1_385_240)">
<path d="M26 16.0033C30.4183 16.0033 34 12.4216 34 8.0033C34 3.58502 30.4183 0.0032959 26 0.0032959C21.5817 0.0032959 18 3.58502 18 8.0033C18 12.4216 21.5817 16.0033 26 16.0033Z" fill="#3D0A91"/>
</g>
<g clip-path="url(#clip2_385_240)">
<path d="M44 16.0033C48.4183 16.0033 52 12.4216 52 8.0033C52 3.58502 48.4183 0.0032959 44 0.0032959C39.5817 0.0032959 36 3.58502 36 8.0033C36 12.4216 39.5817 16.0033 44 16.0033Z" fill="#3D0A91"/>
</g>
<g clip-path="url(#clip3_385_240)">
<path d="M62 16.0033C66.4183 16.0033 70 12.4216 70 8.0033C70 3.58502 66.4183 0.0032959 62 0.0032959C57.5817 0.0032959 54 3.58502 54 8.0033C54 12.4216 57.5817 16.0033 62 16.0033Z" fill="#3D0A91"/>
</g>
<g clip-path="url(#clip4_385_240)">
<path d="M80 16.0033C84.4183 16.0033 88 12.4216 88 8.0033C88 3.58502 84.4183 0.0032959 80 0.0032959C75.5817 0.0032959 72 3.58502 72 8.0033C72 12.4216 75.5817 16.0033 80 16.0033Z" fill="#3D0A91"/>
</g>
<path d="M99.8949 12.6226C99.2926 12.6226 98.7557 12.5118 98.2841 12.2902C97.8153 12.0686 97.4432 11.7632 97.1676 11.374C96.892 10.9848 96.7486 10.5388 96.7372 10.036H98.527C98.5469 10.374 98.6889 10.6482 98.9531 10.8584C99.2173 11.0686 99.5312 11.1738 99.8949 11.1738C100.185 11.1738 100.44 11.1098 100.662 10.982C100.886 10.8513 101.061 10.6709 101.186 10.4408C101.314 10.2078 101.378 9.9408 101.378 9.63966C101.378 9.33284 101.313 9.06295 101.182 8.83C101.054 8.59705 100.876 8.41523 100.649 8.28455C100.422 8.15386 100.162 8.0871 99.8693 8.08426C99.6136 8.08426 99.3651 8.13682 99.1236 8.24193C98.8849 8.34705 98.6989 8.49051 98.5653 8.67233L96.9247 8.3783L97.3381 3.77602H102.673V5.28455H98.8594L98.6335 7.47063H98.6847C98.8381 7.25472 99.0696 7.07574 99.3793 6.93369C99.6889 6.79165 100.036 6.72063 100.419 6.72063C100.945 6.72063 101.413 6.8442 101.825 7.09136C102.237 7.33852 102.562 7.67801 102.801 8.10983C103.04 8.53881 103.158 9.03313 103.155 9.59278C103.158 10.1809 103.021 10.7036 102.746 11.161C102.473 11.6155 102.091 11.9735 101.599 12.2348C101.111 12.4934 100.543 12.6226 99.8949 12.6226ZM110.112 3.36693L107.299 13.8158H105.735L108.548 3.36693H110.112ZM116.934 12.6226C116.332 12.6226 115.795 12.5118 115.323 12.2902C114.854 12.0686 114.482 11.7632 114.207 11.374C113.931 10.9848 113.788 10.5388 113.776 10.036H115.566C115.586 10.374 115.728 10.6482 115.992 10.8584C116.256 11.0686 116.57 11.1738 116.934 11.1738C117.224 11.1738 117.479 11.1098 117.701 10.982C117.925 10.8513 118.1 10.6709 118.225 10.4408C118.353 10.2078 118.417 9.9408 118.417 9.63966C118.417 9.33284 118.352 9.06295 118.221 8.83C118.093 8.59705 117.915 8.41523 117.688 8.28455C117.461 8.15386 117.201 8.0871 116.908 8.08426C116.653 8.08426 116.404 8.13682 116.163 8.24193C115.924 8.34705 115.738 8.49051 115.604 8.67233L113.964 8.3783L114.377 3.77602H119.712V5.28455H115.898L115.673 7.47063H115.724C115.877 7.25472 116.109 7.07574 116.418 6.93369C116.728 6.79165 117.075 6.72063 117.458 6.72063C117.984 6.72063 118.452 6.8442 118.864 7.09136C119.276 7.33852 119.602 7.67801 119.84 8.10983C120.079 8.53881 120.197 9.03313 120.194 9.59278C120.197 10.1809 120.06 10.7036 119.785 11.161C119.512 11.6155 119.13 11.9735 118.638 12.2348C118.15 12.4934 117.582 12.6226 116.934 12.6226ZM129.721 7.82432L128.059 7.92659C128.031 7.78455 127.97 7.6567 127.876 7.54307C127.782 7.42659 127.659 7.33426 127.505 7.26608C127.355 7.19506 127.174 7.15955 126.964 7.15955C126.683 7.15955 126.446 7.2192 126.252 7.33852C126.059 7.455 125.963 7.61125 125.963 7.80727C125.963 7.96352 126.025 8.09563 126.15 8.20358C126.275 8.31153 126.49 8.39818 126.794 8.46352L127.978 8.70216C128.615 8.83284 129.089 9.04307 129.402 9.33284C129.714 9.62261 129.87 10.0033 129.87 10.4749C129.87 10.9039 129.744 11.2803 129.491 11.6041C129.241 11.928 128.897 12.1809 128.46 12.3627C128.025 12.5416 127.524 12.6311 126.956 12.6311C126.089 12.6311 125.399 12.4507 124.885 12.0899C124.373 11.7263 124.074 11.232 123.985 10.607L125.771 10.5132C125.825 10.7774 125.956 10.9791 126.163 11.1184C126.37 11.2547 126.636 11.3229 126.96 11.3229C127.278 11.3229 127.534 11.2618 127.727 11.1397C127.923 11.0147 128.022 10.8541 128.025 10.6581C128.022 10.4934 127.953 10.3584 127.816 10.2533C127.68 10.1453 127.47 10.063 127.186 10.0061L126.052 9.78028C125.413 9.65244 124.937 9.43085 124.625 9.11551C124.315 8.80017 124.16 8.39818 124.16 7.90955C124.16 7.48909 124.274 7.12688 124.501 6.8229C124.731 6.51892 125.054 6.28455 125.468 6.11977C125.886 5.955 126.375 5.87261 126.934 5.87261C127.761 5.87261 128.412 6.04733 128.886 6.39676C129.363 6.74619 129.642 7.22205 129.721 7.82432ZM134.495 5.95784V7.32148H130.553V5.95784H134.495ZM131.448 4.38966H133.263V10.4919C133.263 10.6595 133.289 10.7902 133.34 10.884C133.391 10.9749 133.462 11.0388 133.553 11.0757C133.647 11.1127 133.755 11.1311 133.877 11.1311C133.962 11.1311 134.048 11.124 134.133 11.1098C134.218 11.0928 134.283 11.08 134.329 11.0715L134.614 12.4223C134.523 12.4507 134.396 12.4834 134.231 12.5203C134.066 12.5601 133.866 12.5843 133.63 12.5928C133.192 12.6098 132.809 12.5516 132.479 12.4181C132.153 12.2845 131.898 12.0772 131.717 11.7959C131.535 11.5147 131.445 11.1595 131.448 10.7306V4.38966ZM137.544 12.6269C137.126 12.6269 136.754 12.5544 136.428 12.4095C136.101 12.2618 135.842 12.0445 135.652 11.7576C135.464 11.4678 135.371 11.107 135.371 10.6752C135.371 10.3115 135.438 10.0061 135.571 9.75898C135.705 9.51182 135.886 9.31296 136.116 9.16239C136.347 9.01182 136.608 8.89818 136.901 8.82148C137.196 8.74477 137.506 8.6908 137.83 8.65955C138.21 8.61977 138.517 8.58284 138.75 8.54875C138.983 8.51182 139.152 8.45784 139.257 8.38682C139.362 8.3158 139.415 8.21068 139.415 8.07148V8.04591C139.415 7.77602 139.33 7.56722 139.159 7.41949C138.991 7.27176 138.753 7.1979 138.443 7.1979C138.116 7.1979 137.857 7.27034 137.663 7.41523C137.47 7.55727 137.342 7.73625 137.28 7.95216L135.601 7.8158C135.686 7.41807 135.854 7.07432 136.104 6.78455C136.354 6.49193 136.676 6.2675 137.071 6.11125C137.469 5.95216 137.929 5.87261 138.452 5.87261C138.815 5.87261 139.163 5.91523 139.496 6.00045C139.831 6.08568 140.128 6.21778 140.386 6.39676C140.648 6.57574 140.854 6.80585 141.004 7.0871C141.155 7.36551 141.23 7.69932 141.23 8.08852V12.5033H139.509V11.5956H139.457C139.352 11.8002 139.212 11.9806 139.036 12.1368C138.859 12.2902 138.648 12.411 138.401 12.499C138.153 12.5843 137.868 12.6269 137.544 12.6269ZM138.064 11.374C138.331 11.374 138.567 11.3215 138.771 11.2164C138.976 11.1084 139.136 10.9635 139.253 10.7817C139.369 10.5999 139.428 10.3939 139.428 10.1638V9.46921C139.371 9.50614 139.293 9.54023 139.193 9.57148C139.097 9.59989 138.987 9.62688 138.865 9.65244C138.743 9.67517 138.621 9.69648 138.499 9.71636C138.376 9.73341 138.266 9.74903 138.166 9.76324C137.953 9.79449 137.767 9.8442 137.608 9.91239C137.449 9.98057 137.325 10.0729 137.237 10.1894C137.149 10.303 137.105 10.4451 137.105 10.6155C137.105 10.8627 137.195 11.0516 137.374 11.1823C137.555 11.3101 137.786 11.374 138.064 11.374ZM142.638 12.5033V5.95784H144.398V7.09989H144.467C144.586 6.69364 144.786 6.38682 145.067 6.17943C145.349 5.9692 145.673 5.86409 146.039 5.86409C146.13 5.86409 146.228 5.86977 146.333 5.88114C146.438 5.8925 146.531 5.90813 146.61 5.92801V7.53881C146.525 7.51324 146.407 7.49051 146.256 7.47063C146.106 7.45074 145.968 7.4408 145.843 7.4408C145.576 7.4408 145.337 7.49903 145.127 7.61551C144.92 7.72915 144.755 7.88824 144.633 8.09278C144.513 8.29733 144.454 8.53313 144.454 8.80017V12.5033H142.638ZM152.995 7.82432L151.333 7.92659C151.304 7.78455 151.243 7.6567 151.15 7.54307C151.056 7.42659 150.932 7.33426 150.779 7.26608C150.628 7.19506 150.448 7.15955 150.238 7.15955C149.956 7.15955 149.719 7.2192 149.526 7.33852C149.333 7.455 149.236 7.61125 149.236 7.80727C149.236 7.96352 149.299 8.09563 149.424 8.20358C149.549 8.31153 149.763 8.39818 150.067 8.46352L151.252 8.70216C151.888 8.83284 152.363 9.04307 152.675 9.33284C152.988 9.62261 153.144 10.0033 153.144 10.4749C153.144 10.9039 153.017 11.2803 152.765 11.6041C152.515 11.928 152.171 12.1809 151.733 12.3627C151.299 12.5416 150.797 12.6311 150.229 12.6311C149.363 12.6311 148.672 12.4507 148.158 12.0899C147.647 11.7263 147.347 11.232 147.259 10.607L149.044 10.5132C149.098 10.7774 149.229 10.9791 149.436 11.1184C149.644 11.2547 149.909 11.3229 150.233 11.3229C150.551 11.3229 150.807 11.2618 151 11.1397C151.196 11.0147 151.296 10.8541 151.299 10.6581C151.296 10.4934 151.226 10.3584 151.09 10.2533C150.953 10.1453 150.743 10.063 150.459 10.0061L149.326 9.78028C148.686 9.65244 148.211 9.43085 147.898 9.11551C147.588 8.80017 147.434 8.39818 147.434 7.90955C147.434 7.48909 147.547 7.12688 147.775 6.8229C148.005 6.51892 148.327 6.28455 148.742 6.11977C149.159 5.955 149.648 5.87261 150.208 5.87261C151.034 5.87261 151.685 6.04733 152.159 6.39676C152.637 6.74619 152.915 7.22205 152.995 7.82432Z" fill="#3D0A91"/>
<defs>
<clipPath id="clip0_385_240">
<rect width="16" height="16" fill="white" transform="translate(0 0.0032959)"/>
</clipPath>
<clipPath id="clip1_385_240">
<rect width="16" height="16" fill="white" transform="translate(18 0.0032959)"/>
</clipPath>
<clipPath id="clip2_385_240">
<rect width="16" height="16" fill="white" transform="translate(36 0.0032959)"/>
</clipPath>
<clipPath id="clip3_385_240">
<rect width="16" height="16" fill="white" transform="translate(54 0.0032959)"/>
</clipPath>
<clipPath id="clip4_385_240">
<rect width="16" height="16" fill="white" transform="translate(72 0.0032959)"/>
</clipPath>
</defs>
</svg>
