<svg width="64" height="64" viewBox="0 0 64 64" fill="none" xmlns="http://www.w3.org/2000/svg">
<path opacity="0.2" d="M58 32.0033C58 35.1308 53.545 37.4908 52.33 40.4258C51.16 43.2558 52.685 48.0883 50.385 50.3883C48.085 52.6883 43.2525 51.1633 40.4225 52.3333C37.5 53.5483 35.125 58.0033 32 58.0033C28.875 58.0033 26.5 53.5483 23.5775 52.3333C20.7475 51.1633 15.915 52.6883 13.615 50.3883C11.315 48.0883 12.84 43.2558 11.67 40.4258C10.455 37.5033 6 35.1283 6 32.0033C6 28.8783 10.455 26.5033 11.67 23.5808C12.84 20.7533 11.315 15.9183 13.615 13.6183C15.915 11.3183 20.75 12.8433 23.5775 11.6733C26.5125 10.4583 28.875 6.0033 32 6.0033C35.125 6.0033 37.5 10.4583 40.4225 11.6733C43.2525 12.8433 48.085 11.3183 50.385 13.6183C52.685 15.9183 51.16 20.7508 52.33 23.5808C53.545 26.5158 58 28.8783 58 32.0033Z" fill="#6610F2"/>
<path d="M56.465 25.7083C55.5225 24.7233 54.5475 23.7083 54.18 22.8158C53.84 21.9983 53.82 20.6433 53.8 19.3308C53.7625 16.8908 53.7225 14.1258 51.8 12.2033C49.8775 10.2808 47.1125 10.2408 44.6725 10.2033C43.36 10.1833 42.005 10.1633 41.1875 9.8233C40.2975 9.4558 39.28 8.4808 38.295 7.5383C36.57 5.8808 34.61 4.0033 32 4.0033C29.39 4.0033 27.4325 5.8808 25.705 7.5383C24.72 8.4808 23.705 9.4558 22.8125 9.8233C22 10.1633 20.64 10.1833 19.3275 10.2033C16.8875 10.2408 14.1225 10.2808 12.2 12.2033C10.2775 14.1258 10.25 16.8908 10.2 19.3308C10.18 20.6433 10.16 21.9983 9.82 22.8158C9.4525 23.7058 8.4775 24.7233 7.535 25.7083C5.8775 27.4333 4 29.3933 4 32.0033C4 34.6133 5.8775 36.5708 7.535 38.2983C8.4775 39.2833 9.4525 40.2983 9.82 41.1908C10.16 42.0083 10.18 43.3633 10.2 44.6758C10.2375 47.1158 10.2775 49.8808 12.2 51.8033C14.1225 53.7258 16.8875 53.7658 19.3275 53.8033C20.64 53.8233 21.995 53.8433 22.8125 54.1833C23.7025 54.5508 24.72 55.5258 25.705 56.4683C27.43 58.1258 29.39 60.0033 32 60.0033C34.61 60.0033 36.5675 58.1258 38.295 56.4683C39.28 55.5258 40.295 54.5508 41.1875 54.1833C42.005 53.8433 43.36 53.8233 44.6725 53.8033C47.1125 53.7658 49.8775 53.7258 51.8 51.8033C53.7225 49.8808 53.7625 47.1158 53.8 44.6758C53.82 43.3633 53.84 42.0083 54.18 41.1908C54.5475 40.3008 55.5225 39.2833 56.465 38.2983C58.1225 36.5733 60 34.6133 60 32.0033C60 29.3933 58.1225 27.4358 56.465 25.7083ZM53.5775 35.5308C52.38 36.7808 51.14 38.0733 50.4825 39.6608C49.8525 41.1858 49.825 42.9283 49.8 44.6158C49.775 46.3658 49.7475 48.1983 48.97 48.9733C48.1925 49.7483 46.3725 49.7783 44.6125 49.8033C42.925 49.8283 41.1825 49.8558 39.6575 50.4858C38.07 51.1433 36.7775 52.3833 35.5275 53.5808C34.2775 54.7783 33 56.0033 32 56.0033C31 56.0033 29.7125 54.7733 28.4725 53.5808C27.2325 52.3883 25.93 51.1433 24.3425 50.4858C22.8175 49.8558 21.075 49.8283 19.3875 49.8033C17.6375 49.7783 15.805 49.7508 15.03 48.9733C14.255 48.1958 14.225 46.3758 14.2 44.6158C14.175 42.9283 14.1475 41.1858 13.5175 39.6608C12.86 38.0733 11.62 36.7808 10.4225 35.5308C9.225 34.2808 8 33.0033 8 32.0033C8 31.0033 9.23 29.7158 10.4225 28.4758C11.615 27.2358 12.86 25.9333 13.5175 24.3458C14.1475 22.8208 14.175 21.0783 14.2 19.3908C14.225 17.6408 14.2525 15.8083 15.03 15.0333C15.8075 14.2583 17.6275 14.2283 19.3875 14.2033C21.075 14.1783 22.8175 14.1508 24.3425 13.5208C25.93 12.8633 27.2225 11.6233 28.4725 10.4258C29.7225 9.2283 31 8.0033 32 8.0033C33 8.0033 34.2875 9.2333 35.5275 10.4258C36.7675 11.6183 38.07 12.8633 39.6575 13.5208C41.1825 14.1508 42.925 14.1783 44.6125 14.2033C46.3625 14.2283 48.195 14.2558 48.97 15.0333C49.745 15.8108 49.775 17.6308 49.8 19.3908C49.825 21.0783 49.8525 22.8208 50.4825 24.3458C51.14 25.9333 52.38 27.2258 53.5775 28.4758C54.775 29.7258 56 31.0033 56 32.0033C56 33.0033 54.77 34.2908 53.5775 35.5308ZM43.415 24.5883C43.601 24.774 43.7485 24.9946 43.8491 25.2374C43.9498 25.4802 44.0016 25.7405 44.0016 26.0033C44.0016 26.2661 43.9498 26.5264 43.8491 26.7692C43.7485 27.012 43.601 27.2326 43.415 27.4183L29.415 41.4183C29.2293 41.6042 29.0087 41.7518 28.7659 41.8524C28.5231 41.9531 28.2628 42.0049 28 42.0049C27.7372 42.0049 27.4769 41.9531 27.2341 41.8524C26.9913 41.7518 26.7707 41.6042 26.585 41.4183L20.585 35.4183C20.2097 35.043 19.9989 34.534 19.9989 34.0033C19.9989 33.4726 20.2097 32.9636 20.585 32.5883C20.9603 32.213 21.4693 32.0022 22 32.0022C22.5307 32.0022 23.0397 32.213 23.415 32.5883L28 37.1758L40.585 24.5883C40.7707 24.4023 40.9913 24.2548 41.2341 24.1542C41.4769 24.0535 41.7372 24.0017 42 24.0017C42.2628 24.0017 42.5231 24.0535 42.7659 24.1542C43.0087 24.2548 43.2293 24.4023 43.415 24.5883Z" fill="#6610F2"/>
</svg>
