<svg width="64" height="64" viewBox="0 0 64 64" fill="none" xmlns="http://www.w3.org/2000/svg">
<path opacity="0.2" d="M48.705 37.8608L34.9325 42.9358L29.8575 56.7083C29.7173 57.0881 29.4641 57.4157 29.132 57.6472C28.7999 57.8786 28.4048 58.0027 28 58.0027C27.5952 58.0027 27.2001 57.8786 26.868 57.6472C26.5359 57.4157 26.2827 57.0881 26.1425 56.7083L21.0675 42.9358L7.29498 37.8608C6.91522 37.7206 6.58755 37.4674 6.35612 37.1353C6.12468 36.8032 6.00061 36.4081 6.00061 36.0033C6.00061 35.5985 6.12468 35.2034 6.35612 34.8713C6.58755 34.5392 6.91522 34.286 7.29498 34.1458L21.0675 29.0708L26.1425 15.2983C26.2827 14.9185 26.5359 14.5909 26.868 14.3594C27.2001 14.128 27.5952 14.0039 28 14.0039C28.4048 14.0039 28.7999 14.128 29.132 14.3594C29.4641 14.5909 29.7173 14.9185 29.8575 15.2983L34.9325 29.0708L48.705 34.1458C49.0847 34.286 49.4124 34.5392 49.6438 34.8713C49.8753 35.2034 49.9993 35.5985 49.9993 36.0033C49.9993 36.4081 49.8753 36.8032 49.6438 37.1353C49.4124 37.4674 49.0847 37.7206 48.705 37.8608Z" fill="#6610F2"/>
<path d="M49.395 32.2683L36.5 27.5033L31.75 14.5983C31.4687 13.8341 30.9598 13.1746 30.2919 12.7088C29.624 12.2429 28.8293 11.9931 28.015 11.9931C27.2007 11.9931 26.406 12.2429 25.7381 12.7088C25.0702 13.1746 24.5613 13.8341 24.28 14.5983L19.5 27.5033L6.59503 32.2533C5.83085 32.5346 5.17135 33.0435 4.7055 33.7114C4.23964 34.3793 3.98987 35.174 3.98987 35.9883C3.98987 36.8026 4.23964 37.5973 4.7055 38.2652C5.17135 38.9331 5.83085 39.442 6.59503 39.7233L19.5 44.5033L24.25 57.4083C24.5313 58.1725 25.0402 58.832 25.7081 59.2978C26.376 59.7637 27.1707 60.0135 27.985 60.0135C28.7993 60.0135 29.594 59.7637 30.2619 59.2978C30.9298 58.832 31.4387 58.1725 31.72 57.4083L36.5 44.5033L49.405 39.7533C50.1692 39.472 50.8287 38.9631 51.2946 38.2952C51.7604 37.6273 52.0102 36.8326 52.0102 36.0183C52.0102 35.204 51.7604 34.4093 51.2946 33.7414C50.8287 33.0735 50.1692 32.5646 49.405 32.2833L49.395 32.2683ZM34.25 41.0583C33.9786 41.1583 33.732 41.3161 33.5274 41.5207C33.3228 41.7253 33.1651 41.9718 33.065 42.2433L28 55.9658L22.945 42.2533C22.8451 41.979 22.6864 41.7298 22.48 41.5234C22.2735 41.3169 22.0244 41.1582 21.75 41.0583L8.03753 36.0033L21.75 30.9483C22.0244 30.8484 22.2735 30.6897 22.48 30.4832C22.6864 30.2768 22.8451 30.0276 22.945 29.7533L28 16.0408L33.055 29.7533C33.1551 30.0248 33.3128 30.2713 33.5174 30.4759C33.722 30.6805 33.9686 30.8382 34.24 30.9383L47.9625 36.0033L34.25 41.0583ZM36 10.0033C36 9.47286 36.2107 8.96416 36.5858 8.58908C36.9609 8.21401 37.4696 8.0033 38 8.0033H42V4.0033C42 3.47286 42.2107 2.96415 42.5858 2.58908C42.9609 2.21401 43.4696 2.0033 44 2.0033C44.5305 2.0033 45.0392 2.21401 45.4142 2.58908C45.7893 2.96415 46 3.47286 46 4.0033V8.0033H50C50.5305 8.0033 51.0392 8.21401 51.4142 8.58908C51.7893 8.96416 52 9.47286 52 10.0033C52 10.5337 51.7893 11.0424 51.4142 11.4175C51.0392 11.7926 50.5305 12.0033 50 12.0033H46V16.0033C46 16.5337 45.7893 17.0424 45.4142 17.4175C45.0392 17.7926 44.5305 18.0033 44 18.0033C43.4696 18.0033 42.9609 17.7926 42.5858 17.4175C42.2107 17.0424 42 16.5337 42 16.0033V12.0033H38C37.4696 12.0033 36.9609 11.7926 36.5858 11.4175C36.2107 11.0424 36 10.5337 36 10.0033ZM62 22.0033C62 22.5337 61.7893 23.0424 61.4142 23.4175C61.0392 23.7926 60.5305 24.0033 60 24.0033H58V26.0033C58 26.5337 57.7893 27.0424 57.4142 27.4175C57.0392 27.7926 56.5305 28.0033 56 28.0033C55.4696 28.0033 54.9609 27.7926 54.5858 27.4175C54.2107 27.0424 54 26.5337 54 26.0033V24.0033H52C51.4696 24.0033 50.9609 23.7926 50.5858 23.4175C50.2107 23.0424 50 22.5337 50 22.0033C50 21.4729 50.2107 20.9642 50.5858 20.5891C50.9609 20.214 51.4696 20.0033 52 20.0033H54V18.0033C54 17.4729 54.2107 16.9642 54.5858 16.5891C54.9609 16.214 55.4696 16.0033 56 16.0033C56.5305 16.0033 57.0392 16.214 57.4142 16.5891C57.7893 16.9642 58 17.4729 58 18.0033V20.0033H60C60.5305 20.0033 61.0392 20.214 61.4142 20.5891C61.7893 20.9642 62 21.4729 62 22.0033Z" fill="#6610F2"/>
</svg>
