<svg width="72" height="72" viewBox="0 0 72 72" fill="none" xmlns="http://www.w3.org/2000/svg">
<path opacity="0.2" d="M9 38.2533H29.25V46.1283C29.25 48.8136 28.1833 51.3889 26.2845 53.2878C24.3856 55.1866 21.8103 56.2533 19.125 56.2533C16.4397 56.2533 13.8643 55.1866 11.9655 53.2878C10.0667 51.3889 9 48.8136 9 46.1283V38.2533ZM42.75 38.2533V46.1283C42.75 48.8136 43.8167 51.3889 45.7155 53.2878C47.6143 55.1866 50.1897 56.2533 52.875 56.2533C55.5603 56.2533 58.1357 55.1866 60.0345 53.2878C61.9333 51.3889 63 48.8136 63 46.1283V38.2533H42.75Z" fill="#6610F2"/>
<path d="M56.25 11.2533C55.6533 11.2533 55.081 11.4903 54.659 11.9123C54.2371 12.3343 54 12.9066 54 13.5033C54 14.1 54.2371 14.6723 54.659 15.0943C55.081 15.5162 55.6533 15.7533 56.25 15.7533C57.4435 15.7533 58.5881 16.2274 59.432 17.0713C60.2759 17.9152 60.75 19.0598 60.75 20.2533V36.0033H11.25V20.2533C11.25 19.0598 11.7241 17.9152 12.568 17.0713C13.4119 16.2274 14.5565 15.7533 15.75 15.7533C16.3467 15.7533 16.919 15.5162 17.341 15.0943C17.7629 14.6723 18 14.1 18 13.5033C18 12.9066 17.7629 12.3343 17.341 11.9123C16.919 11.4903 16.3467 11.2533 15.75 11.2533C13.3631 11.2533 11.0739 12.2015 9.38604 13.8893C7.69821 15.5772 6.75 17.8663 6.75 20.2533V46.1283C6.75 49.4104 8.05379 52.558 10.3746 54.8787C12.6953 57.1995 15.8429 58.5033 19.125 58.5033C22.4071 58.5033 25.5547 57.1995 27.8754 54.8787C30.1962 52.558 31.5 49.4104 31.5 46.1283V40.5033H40.5V46.1283C40.5 49.4104 41.8038 52.558 44.1246 54.8787C46.4453 57.1995 49.5929 58.5033 52.875 58.5033C56.1571 58.5033 59.3047 57.1995 61.6254 54.8787C63.9462 52.558 65.25 49.4104 65.25 46.1283V20.2533C65.25 17.8663 64.3018 15.5772 62.614 13.8893C60.9261 12.2015 58.6369 11.2533 56.25 11.2533ZM59.8022 49.8717L50.4309 40.5033H60.75V46.1283C60.752 47.4357 60.4261 48.7228 59.8022 49.8717ZM11.25 46.1283V41.4342L22.8684 53.0555C21.6689 53.7036 20.3217 54.0292 18.9586 54.0004C17.5955 53.9715 16.2632 53.5893 15.0921 52.8911C13.9211 52.1929 12.9514 51.2026 12.2779 50.0172C11.6044 48.8317 11.2502 47.4917 11.25 46.1283ZM27 46.1283C27.002 47.4357 26.6761 48.7228 26.0522 49.8717L16.6809 40.5033H27V46.1283ZM45 46.1283V41.4342L56.6184 53.0555C55.4189 53.7036 54.0717 54.0292 52.7086 54.0004C51.3455 53.9715 50.0132 53.5893 48.8421 52.8911C47.6711 52.1929 46.7014 51.2026 46.0279 50.0172C45.3544 48.8317 45.0002 47.4917 45 46.1283Z" fill="#6610F2"/>
</svg>
